<svg xmlns="http://www.w3.org/2000/svg" xmlns:xlink="http://www.w3.org/1999/xlink" width="1587" zoomAndPan="magnify" viewBox="0 0 1190.25 1683.749949" height="2245" preserveAspectRatio="xMidYMid meet" version="1.2"><defs/><g id="843a8f13f1"><g style="fill:#205ffc;fill-opacity:1;"><g transform="translate(115.30031, 748.602672)"><path style="stroke:none" d="M 52.59375 -108.59375 L 52.59375 0 L 12.71875 0 L 12.71875 -174.984375 L 52.59375 -174.984375 L 122.171875 -66.390625 L 122.59375 -66.390625 L 122.59375 -174.984375 L 162.46875 -174.984375 L 162.46875 0 L 122.59375 0 L 53.03125 -108.59375 Z M 52.59375 -108.59375 "/></g></g><g style="fill:#205ffc;fill-opacity:1;"><g transform="translate(290.4947, 748.602672)"><path style="stroke:none" d="M 23 -12.9375 C 10.914062 -23.6875 4.875 -37.472656 4.875 -54.296875 C 4.875 -71.117188 11.164062 -84.9375 23.75 -95.75 C 36.332031 -106.570312 51.890625 -111.984375 70.421875 -111.984375 C 88.660156 -111.984375 104.035156 -106.539062 116.546875 -95.65625 C 129.054688 -84.769531 135.3125 -70.984375 135.3125 -54.296875 C 135.3125 -37.609375 129.195312 -23.851562 116.96875 -13.03125 C 104.738281 -2.21875 89.222656 3.1875 70.421875 3.1875 C 50.898438 3.1875 35.09375 -2.1875 23 -12.9375 Z M 52.0625 -72.734375 C 47.1875 -67.929688 44.75 -61.785156 44.75 -54.296875 C 44.75 -46.804688 47.082031 -40.691406 51.75 -35.953125 C 56.414062 -31.210938 62.566406 -28.84375 70.203125 -28.84375 C 77.554688 -28.84375 83.597656 -31.242188 88.328125 -36.046875 C 93.066406 -40.859375 95.4375 -46.941406 95.4375 -54.296875 C 95.4375 -61.785156 93 -67.929688 88.125 -72.734375 C 83.25 -77.546875 77.273438 -79.953125 70.203125 -79.953125 C 62.992188 -79.953125 56.945312 -77.546875 52.0625 -72.734375 Z M 52.0625 -72.734375 "/></g></g><g style="fill:#205ffc;fill-opacity:1;"><g transform="translate(430.692642, 748.602672)"><path style="stroke:none" d="M 67.453125 0 L -5.9375 -174.984375 L 39.03125 -174.984375 L 83.140625 -60.015625 L 127.25 -174.984375 L 172.21875 -174.984375 L 98.828125 0 Z M 67.453125 0 "/></g></g><g style="fill:#205ffc;fill-opacity:1;"><g transform="translate(582.556032, 748.602672)"><path style="stroke:none" d="M 20.140625 -13.46875 C 9.960938 -24.570312 4.875 -38.179688 4.875 -54.296875 C 4.875 -70.410156 9.960938 -84.050781 20.140625 -95.21875 C 30.328125 -106.394531 43.269531 -111.984375 58.96875 -111.984375 C 73.382812 -111.984375 85.257812 -107.457031 94.59375 -98.40625 L 94.59375 -108.796875 L 132.140625 -108.796875 L 132.140625 0 L 95.015625 0 L 95.015625 -12.296875 L 94.59375 -12.296875 C 85.257812 -1.972656 73.382812 3.1875 58.96875 3.1875 C 43.269531 3.1875 30.328125 -2.363281 20.140625 -13.46875 Z M 52.0625 -72.734375 C 47.1875 -67.929688 44.75 -61.785156 44.75 -54.296875 C 44.75 -46.804688 47.082031 -40.691406 51.75 -35.953125 C 56.414062 -31.210938 62.566406 -28.84375 70.203125 -28.84375 C 77.554688 -28.84375 83.597656 -31.242188 88.328125 -36.046875 C 93.066406 -40.859375 95.4375 -46.941406 95.4375 -54.296875 C 95.4375 -61.785156 93 -67.929688 88.125 -72.734375 C 83.25 -77.546875 77.273438 -79.953125 70.203125 -79.953125 C 62.992188 -79.953125 56.945312 -77.546875 52.0625 -72.734375 Z M 52.0625 -72.734375 "/></g></g><g style="fill:#205ffc;fill-opacity:1;"><g transform="translate(727.420223, 748.602672)"><path style="stroke:none" d="M 124.703125 -95.328125 C 134.890625 -84.234375 139.984375 -70.625 139.984375 -54.5 C 139.984375 -38.382812 134.890625 -24.738281 124.703125 -13.5625 C 114.523438 -2.394531 101.585938 3.1875 85.890625 3.1875 C 71.472656 3.1875 59.597656 -1.335938 50.265625 -10.390625 L 50.265625 55.140625 L 12.71875 55.140625 L 12.71875 -108.796875 L 49.84375 -108.796875 L 49.84375 -96.5 L 50.265625 -96.5 C 59.597656 -106.820312 71.472656 -111.984375 85.890625 -111.984375 C 101.585938 -111.984375 114.523438 -106.429688 124.703125 -95.328125 Z M 92.78125 -36.046875 C 97.664062 -40.859375 100.109375 -47.007812 100.109375 -54.5 C 100.109375 -62 97.773438 -68.113281 93.109375 -72.84375 C 88.441406 -77.582031 82.289062 -79.953125 74.65625 -79.953125 C 67.300781 -79.953125 61.253906 -77.546875 56.515625 -72.734375 C 51.785156 -67.929688 49.421875 -61.859375 49.421875 -54.515625 C 49.421875 -47.015625 51.859375 -40.859375 56.734375 -36.046875 C 61.609375 -31.242188 67.582031 -28.84375 74.65625 -28.84375 C 81.863281 -28.84375 87.90625 -31.242188 92.78125 -36.046875 Z M 92.78125 -36.046875 "/></g></g><g style="fill:#205ffc;fill-opacity:1;"><g transform="translate(872.28436, 748.602672)"><path style="stroke:none" d="M 122.796875 -49.203125 L 43.90625 -49.203125 C 43.90625 -41.566406 46.378906 -35.910156 51.328125 -32.234375 C 56.273438 -28.554688 61.648438 -26.71875 67.453125 -26.71875 C 73.523438 -26.71875 78.328125 -27.53125 81.859375 -29.15625 C 85.398438 -30.789062 89.429688 -34.007812 93.953125 -38.8125 L 121.109375 -25.234375 C 109.796875 -6.285156 90.988281 3.1875 64.6875 3.1875 C 48.28125 3.1875 34.207031 -2.429688 22.46875 -13.671875 C 10.738281 -24.921875 4.875 -38.460938 4.875 -54.296875 C 4.875 -70.128906 10.738281 -83.703125 22.46875 -95.015625 C 34.207031 -106.328125 48.28125 -111.984375 64.6875 -111.984375 C 81.9375 -111.984375 95.96875 -107 106.78125 -97.03125 C 117.601562 -87.0625 123.015625 -72.816406 123.015625 -54.296875 C 123.015625 -51.753906 122.941406 -50.054688 122.796875 -49.203125 Z M 44.96875 -69.984375 L 86.328125 -69.984375 C 85.472656 -75.640625 83.242188 -79.988281 79.640625 -83.03125 C 76.035156 -86.070312 71.40625 -87.59375 65.75 -87.59375 C 59.53125 -87.59375 54.582031 -85.96875 50.90625 -82.71875 C 47.226562 -79.46875 45.25 -75.222656 44.96875 -69.984375 Z M 44.96875 -69.984375 "/></g></g><g style="fill:#205ffc;fill-opacity:1;"><g transform="translate(1000.180547, 748.602672)"><path style="stroke:none" d="M 36.90625 -45.390625 C 43.6875 -45.390625 49.445312 -43.019531 54.1875 -38.28125 C 58.925781 -33.539062 61.296875 -27.78125 61.296875 -21 C 61.296875 -14.351562 58.925781 -8.660156 54.1875 -3.921875 C 49.445312 0.816406 43.6875 3.1875 36.90625 3.1875 C 30.257812 3.1875 24.566406 0.816406 19.828125 -3.921875 C 15.085938 -8.660156 12.71875 -14.351562 12.71875 -21 C 12.71875 -27.78125 15.085938 -33.539062 19.828125 -38.28125 C 24.566406 -43.019531 30.257812 -45.390625 36.90625 -45.390625 Z M 36.90625 -45.390625 "/></g></g><g style="fill:#205ffc;fill-opacity:1;"><g transform="translate(118.396037, 865.424017)"><path style="stroke:none" d="M 17.28125 0 L -1.515625 -44.828125 L 10 -44.828125 L 21.296875 -15.375 L 32.609375 -44.828125 L 44.125 -44.828125 L 25.328125 0 Z M 17.28125 0 "/></g></g><g style="fill:#205ffc;fill-opacity:1;"><g transform="translate(156.054589, 865.424017)"><path style="stroke:none" d="M 26.03125 -44.828125 L 44.125 0 L 33.15625 0 L 29.828125 -8.96875 L 12.765625 -8.96875 L 9.453125 0 L -1.515625 0 L 16.578125 -44.828125 Z M 26.359375 -17.9375 L 21.359375 -30.96875 L 21.25 -30.96875 L 16.25 -17.9375 Z M 26.359375 -17.9375 "/></g></g><g style="fill:#205ffc;fill-opacity:1;"><g transform="translate(198.65821, 865.424017)"><path style="stroke:none" d="M 3.265625 -44.828125 L 19.625 -44.828125 C 24.1875 -44.828125 27.878906 -43.648438 30.703125 -41.296875 C 33.523438 -38.941406 34.9375 -35.519531 34.9375 -31.03125 C 34.9375 -26.539062 33.503906 -23.015625 30.640625 -20.453125 C 27.785156 -17.898438 24.113281 -16.625 19.625 -16.625 L 13.484375 -16.625 L 13.484375 0 L 3.265625 0 Z M 13.484375 -24.78125 L 16.359375 -24.78125 C 18.640625 -24.78125 20.515625 -25.238281 21.984375 -26.15625 C 23.453125 -27.082031 24.1875 -28.597656 24.1875 -30.703125 C 24.1875 -32.835938 23.453125 -34.367188 21.984375 -35.296875 C 20.515625 -36.222656 18.640625 -36.6875 16.359375 -36.6875 L 13.484375 -36.6875 Z M 13.484375 -24.78125 "/></g></g><g style="fill:#205ffc;fill-opacity:1;"><g transform="translate(234.849556, 865.424017)"><path style="stroke:none" d="M 13.484375 -44.828125 L 13.484375 0 L 3.265625 0 L 3.265625 -44.828125 Z M 13.484375 -44.828125 "/></g></g><g style="fill:#205ffc;fill-opacity:1;"><g transform="translate(251.586684, 865.424017)"><path style="stroke:none" d="M 13.484375 -27.828125 L 13.484375 0 L 3.265625 0 L 3.265625 -44.828125 L 13.484375 -44.828125 L 31.296875 -17.015625 L 31.40625 -17.015625 L 31.40625 -44.828125 L 41.625 -44.828125 L 41.625 0 L 31.40625 0 L 13.578125 -27.828125 Z M 13.484375 -27.828125 "/></g></g><g style="fill:#205ffc;fill-opacity:1;"><g transform="translate(296.472642, 865.424017)"><path style="stroke:none" d="M 43.796875 -25.109375 L 43.796875 -15.375 C 42.640625 -10.050781 40.101562 -6.019531 36.1875 -3.28125 C 32.28125 -0.550781 27.914062 0.8125 23.09375 0.8125 C 17.039062 0.8125 11.882812 -1.445312 7.625 -5.96875 C 3.375 -10.5 1.25 -15.972656 1.25 -22.390625 C 1.25 -28.910156 3.332031 -34.414062 7.5 -38.90625 C 11.664062 -43.40625 16.863281 -45.65625 23.09375 -45.65625 C 30.375 -45.65625 36.132812 -43.097656 40.375 -37.984375 L 33.6875 -30.65625 C 31.300781 -34.488281 27.96875 -36.40625 23.6875 -36.40625 C 20.539062 -36.40625 17.851562 -35.035156 15.625 -32.296875 C 13.394531 -29.566406 12.28125 -26.265625 12.28125 -22.390625 C 12.28125 -18.585938 13.394531 -15.335938 15.625 -12.640625 C 17.851562 -9.941406 20.539062 -8.59375 23.6875 -8.59375 C 26.300781 -8.59375 28.578125 -9.378906 30.515625 -10.953125 C 32.453125 -12.523438 33.421875 -14.617188 33.421875 -17.234375 L 23.09375 -17.234375 L 23.09375 -25.109375 Z M 43.796875 -25.109375 "/></g></g><g style="fill:#205ffc;fill-opacity:1;"><g transform="translate(341.521619, 865.424017)"><path style="stroke:none" d=""/></g></g><g style="fill:#205ffc;fill-opacity:1;"><g transform="translate(354.617892, 865.424017)"><path style="stroke:none" d="M 27.125 -9.234375 C 28.675781 -9.234375 30.1875 -9.46875 31.65625 -9.9375 C 33.125 -10.414062 34.203125 -10.867188 34.890625 -11.296875 L 35.921875 -12.015625 L 40.265625 -3.3125 C 40.117188 -3.207031 39.921875 -3.0625 39.671875 -2.875 C 39.421875 -2.695312 38.832031 -2.363281 37.90625 -1.875 C 36.976562 -1.382812 35.988281 -0.957031 34.9375 -0.59375 C 33.882812 -0.226562 32.507812 0.09375 30.8125 0.375 C 29.113281 0.664062 27.359375 0.8125 25.546875 0.8125 C 21.378906 0.8125 17.425781 -0.207031 13.6875 -2.25 C 9.957031 -4.300781 6.953125 -7.117188 4.671875 -10.703125 C 2.390625 -14.285156 1.25 -18.160156 1.25 -22.328125 C 1.25 -25.484375 1.914062 -28.507812 3.25 -31.40625 C 4.59375 -34.3125 6.378906 -36.796875 8.609375 -38.859375 C 10.835938 -40.921875 13.4375 -42.566406 16.40625 -43.796875 C 19.382812 -45.035156 22.429688 -45.65625 25.546875 -45.65625 C 28.441406 -45.65625 31.109375 -45.304688 33.546875 -44.609375 C 35.992188 -43.921875 37.726562 -43.234375 38.75 -42.546875 L 40.265625 -41.515625 L 35.921875 -32.828125 C 35.671875 -33.046875 35.289062 -33.304688 34.78125 -33.609375 C 34.269531 -33.921875 33.253906 -34.328125 31.734375 -34.828125 C 30.210938 -35.335938 28.675781 -35.59375 27.125 -35.59375 C 24.65625 -35.59375 22.441406 -35.191406 20.484375 -34.390625 C 18.523438 -33.597656 16.972656 -32.550781 15.828125 -31.25 C 14.691406 -29.945312 13.828125 -28.539062 13.234375 -27.03125 C 12.640625 -25.53125 12.34375 -24 12.34375 -22.4375 C 12.34375 -19.03125 13.617188 -15.976562 16.171875 -13.28125 C 18.722656 -10.582031 22.375 -9.234375 27.125 -9.234375 Z M 27.125 -9.234375 "/></g></g><g style="fill:#205ffc;fill-opacity:1;"><g transform="translate(395.536946, 865.424017)"><path style="stroke:none" d="M 28.90625 -44.828125 L 28.90625 -35.859375 L 13.484375 -35.859375 L 13.484375 -26.953125 L 28.265625 -26.953125 L 28.265625 -17.984375 L 13.484375 -17.984375 L 13.484375 -8.96875 L 28.90625 -8.96875 L 28.90625 0 L 3.265625 0 L 3.265625 -44.828125 Z M 28.90625 -44.828125 "/></g></g><g style="fill:#205ffc;fill-opacity:1;"><g transform="translate(427.054929, 865.424017)"><path style="stroke:none" d="M 19.78125 -45.65625 C 22.207031 -45.65625 24.578125 -45.300781 26.890625 -44.59375 C 29.210938 -43.882812 30.9375 -43.1875 32.0625 -42.5 L 33.6875 -41.40625 L 29.5625 -33.265625 C 29.238281 -33.472656 28.785156 -33.75 28.203125 -34.09375 C 27.617188 -34.4375 26.53125 -34.898438 24.9375 -35.484375 C 23.34375 -36.066406 21.859375 -36.359375 20.484375 -36.359375 C 18.785156 -36.359375 17.472656 -35.992188 16.546875 -35.265625 C 15.617188 -34.546875 15.15625 -33.566406 15.15625 -32.328125 C 15.15625 -31.710938 15.375 -31.140625 15.8125 -30.609375 C 16.25 -30.085938 16.992188 -29.53125 18.046875 -28.9375 C 19.097656 -28.34375 20.019531 -27.863281 20.8125 -27.5 C 21.613281 -27.132812 22.847656 -26.59375 24.515625 -25.875 C 27.410156 -24.632812 29.878906 -22.953125 31.921875 -20.828125 C 33.972656 -18.710938 35 -16.316406 35 -13.640625 C 35 -11.066406 34.535156 -8.816406 33.609375 -6.890625 C 32.679688 -4.972656 31.410156 -3.472656 29.796875 -2.390625 C 28.191406 -1.304688 26.410156 -0.503906 24.453125 0.015625 C 22.492188 0.546875 20.375 0.8125 18.09375 0.8125 C 16.132812 0.8125 14.210938 0.613281 12.328125 0.21875 C 10.453125 -0.175781 8.878906 -0.671875 7.609375 -1.265625 C 6.335938 -1.867188 5.191406 -2.457031 4.171875 -3.03125 C 3.160156 -3.613281 2.421875 -4.109375 1.953125 -4.515625 L 1.25 -5.109375 L 6.359375 -13.6875 C 6.796875 -13.332031 7.394531 -12.875 8.15625 -12.3125 C 8.914062 -11.75 10.265625 -10.992188 12.203125 -10.046875 C 14.140625 -9.109375 15.847656 -8.640625 17.328125 -8.640625 C 21.640625 -8.640625 23.796875 -10.109375 23.796875 -13.046875 C 23.796875 -13.660156 23.640625 -14.226562 23.328125 -14.75 C 23.023438 -15.28125 22.484375 -15.804688 21.703125 -16.328125 C 20.929688 -16.859375 20.242188 -17.273438 19.640625 -17.578125 C 19.046875 -17.890625 18.066406 -18.359375 16.703125 -18.984375 C 15.347656 -19.617188 14.34375 -20.101562 13.6875 -20.4375 C 10.976562 -21.769531 8.878906 -23.441406 7.390625 -25.453125 C 5.898438 -27.460938 5.15625 -29.628906 5.15625 -31.953125 C 5.15625 -35.972656 6.640625 -39.257812 9.609375 -41.8125 C 12.585938 -44.375 15.976562 -45.65625 19.78125 -45.65625 Z M 19.78125 -45.65625 "/></g></g><g style="fill:#205ffc;fill-opacity:1;"><g transform="translate(462.485481, 865.424017)"><path style="stroke:none" d="M 19.78125 -45.65625 C 22.207031 -45.65625 24.578125 -45.300781 26.890625 -44.59375 C 29.210938 -43.882812 30.9375 -43.1875 32.0625 -42.5 L 33.6875 -41.40625 L 29.5625 -33.265625 C 29.238281 -33.472656 28.785156 -33.75 28.203125 -34.09375 C 27.617188 -34.4375 26.53125 -34.898438 24.9375 -35.484375 C 23.34375 -36.066406 21.859375 -36.359375 20.484375 -36.359375 C 18.785156 -36.359375 17.472656 -35.992188 16.546875 -35.265625 C 15.617188 -34.546875 15.15625 -33.566406 15.15625 -32.328125 C 15.15625 -31.710938 15.375 -31.140625 15.8125 -30.609375 C 16.25 -30.085938 16.992188 -29.53125 18.046875 -28.9375 C 19.097656 -28.34375 20.019531 -27.863281 20.8125 -27.5 C 21.613281 -27.132812 22.847656 -26.59375 24.515625 -25.875 C 27.410156 -24.632812 29.878906 -22.953125 31.921875 -20.828125 C 33.972656 -18.710938 35 -16.316406 35 -13.640625 C 35 -11.066406 34.535156 -8.816406 33.609375 -6.890625 C 32.679688 -4.972656 31.410156 -3.472656 29.796875 -2.390625 C 28.191406 -1.304688 26.410156 -0.503906 24.453125 0.015625 C 22.492188 0.546875 20.375 0.8125 18.09375 0.8125 C 16.132812 0.8125 14.210938 0.613281 12.328125 0.21875 C 10.453125 -0.175781 8.878906 -0.671875 7.609375 -1.265625 C 6.335938 -1.867188 5.191406 -2.457031 4.171875 -3.03125 C 3.160156 -3.613281 2.421875 -4.109375 1.953125 -4.515625 L 1.25 -5.109375 L 6.359375 -13.6875 C 6.796875 -13.332031 7.394531 -12.875 8.15625 -12.3125 C 8.914062 -11.75 10.265625 -10.992188 12.203125 -10.046875 C 14.140625 -9.109375 15.847656 -8.640625 17.328125 -8.640625 C 21.640625 -8.640625 23.796875 -10.109375 23.796875 -13.046875 C 23.796875 -13.660156 23.640625 -14.226562 23.328125 -14.75 C 23.023438 -15.28125 22.484375 -15.804688 21.703125 -16.328125 C 20.929688 -16.859375 20.242188 -17.273438 19.640625 -17.578125 C 19.046875 -17.890625 18.066406 -18.359375 16.703125 -18.984375 C 15.347656 -19.617188 14.34375 -20.101562 13.6875 -20.4375 C 10.976562 -21.769531 8.878906 -23.441406 7.390625 -25.453125 C 5.898438 -27.460938 5.15625 -29.628906 5.15625 -31.953125 C 5.15625 -35.972656 6.640625 -39.257812 9.609375 -41.8125 C 12.585938 -44.375 15.976562 -45.65625 19.78125 -45.65625 Z M 19.78125 -45.65625 "/></g></g><g style="fill:#205ffc;fill-opacity:1;"><g transform="translate(499.002887, 865.424017)"><path style="stroke:none" d="M 13.484375 -44.828125 L 13.484375 0 L 3.265625 0 L 3.265625 -44.828125 Z M 13.484375 -44.828125 "/></g></g><g style="fill:#205ffc;fill-opacity:1;"><g transform="translate(515.740015, 865.424017)"><path style="stroke:none" d="M 1.25 -22.4375 C 1.25 -28.925781 3.457031 -34.414062 7.875 -38.90625 C 12.300781 -43.40625 17.628906 -45.65625 23.859375 -45.65625 C 30.128906 -45.65625 35.453125 -43.414062 39.828125 -38.9375 C 44.210938 -34.457031 46.40625 -28.957031 46.40625 -22.4375 C 46.40625 -15.882812 44.25 -10.367188 39.9375 -5.890625 C 35.625 -1.421875 30.265625 0.8125 23.859375 0.8125 C 17.296875 0.8125 11.882812 -1.40625 7.625 -5.84375 C 3.375 -10.28125 1.25 -15.8125 1.25 -22.4375 Z M 12.28125 -22.4375 C 12.28125 -20.082031 12.640625 -17.9375 13.359375 -16 C 14.085938 -14.0625 15.359375 -12.421875 17.171875 -11.078125 C 18.984375 -9.742188 21.210938 -9.078125 23.859375 -9.078125 C 27.660156 -9.078125 30.53125 -10.378906 32.46875 -12.984375 C 34.40625 -15.597656 35.375 -18.75 35.375 -22.4375 C 35.375 -26.101562 34.382812 -29.25 32.40625 -31.875 C 30.4375 -34.5 27.585938 -35.8125 23.859375 -35.8125 C 20.160156 -35.8125 17.304688 -34.5 15.296875 -31.875 C 13.285156 -29.25 12.28125 -26.101562 12.28125 -22.4375 Z M 12.28125 -22.4375 "/></g></g><g style="fill:#205ffc;fill-opacity:1;"><g transform="translate(563.397376, 865.424017)"><path style="stroke:none" d="M 13.484375 -27.828125 L 13.484375 0 L 3.265625 0 L 3.265625 -44.828125 L 13.484375 -44.828125 L 31.296875 -17.015625 L 31.40625 -17.015625 L 31.40625 -44.828125 L 41.625 -44.828125 L 41.625 0 L 31.40625 0 L 13.578125 -27.828125 Z M 13.484375 -27.828125 "/></g></g><g style="fill:#205ffc;fill-opacity:1;"><g transform="translate(608.283323, 865.424017)"><path style="stroke:none" d=""/></g></g><g style="fill:#205ffc;fill-opacity:1;"><g transform="translate(623.118502, 865.424017)"><path style="stroke:none" d="M 26.03125 -44.828125 L 44.125 0 L 33.15625 0 L 29.828125 -8.96875 L 12.765625 -8.96875 L 9.453125 0 L -1.515625 0 L 16.578125 -44.828125 Z M 26.359375 -17.9375 L 21.359375 -30.96875 L 21.25 -30.96875 L 16.25 -17.9375 Z M 26.359375 -17.9375 "/></g></g><g style="fill:#205ffc;fill-opacity:1;"><g transform="translate(665.722139, 865.424017)"><path style="stroke:none" d="M 3.265625 -44.828125 L 19.625 -44.828125 C 24.1875 -44.828125 27.878906 -43.648438 30.703125 -41.296875 C 33.523438 -38.941406 34.9375 -35.519531 34.9375 -31.03125 C 34.9375 -26.539062 33.503906 -23.015625 30.640625 -20.453125 C 27.785156 -17.898438 24.113281 -16.625 19.625 -16.625 L 13.484375 -16.625 L 13.484375 0 L 3.265625 0 Z M 13.484375 -24.78125 L 16.359375 -24.78125 C 18.640625 -24.78125 20.515625 -25.238281 21.984375 -26.15625 C 23.453125 -27.082031 24.1875 -28.597656 24.1875 -30.703125 C 24.1875 -32.835938 23.453125 -34.367188 21.984375 -35.296875 C 20.515625 -36.222656 18.640625 -36.6875 16.359375 -36.6875 L 13.484375 -36.6875 Z M 13.484375 -24.78125 "/></g></g><g style="fill:#205ffc;fill-opacity:1;"><g transform="translate(701.913484, 865.424017)"><path style="stroke:none" d="M 3.265625 -44.828125 L 19.625 -44.828125 C 24.1875 -44.828125 27.878906 -43.648438 30.703125 -41.296875 C 33.523438 -38.941406 34.9375 -35.519531 34.9375 -31.03125 C 34.9375 -26.539062 33.503906 -23.015625 30.640625 -20.453125 C 27.785156 -17.898438 24.113281 -16.625 19.625 -16.625 L 13.484375 -16.625 L 13.484375 0 L 3.265625 0 Z M 13.484375 -24.78125 L 16.359375 -24.78125 C 18.640625 -24.78125 20.515625 -25.238281 21.984375 -26.15625 C 23.453125 -27.082031 24.1875 -28.597656 24.1875 -30.703125 C 24.1875 -32.835938 23.453125 -34.367188 21.984375 -35.296875 C 20.515625 -36.222656 18.640625 -36.6875 16.359375 -36.6875 L 13.484375 -36.6875 Z M 13.484375 -24.78125 "/></g></g><g style="fill:#205ffc;fill-opacity:1;"><g transform="translate(738.10483, 865.424017)"><path style="stroke:none" d="M 13.484375 -44.828125 L 13.484375 -8.96875 L 28.90625 -8.96875 L 28.90625 0 L 3.265625 0 L 3.265625 -44.828125 Z M 13.484375 -44.828125 "/></g></g><g style="fill:#205ffc;fill-opacity:1;"><g transform="translate(768.807719, 865.424017)"><path style="stroke:none" d="M 13.484375 -44.828125 L 13.484375 0 L 3.265625 0 L 3.265625 -44.828125 Z M 13.484375 -44.828125 "/></g></g><g style="fill:#205ffc;fill-opacity:1;"><g transform="translate(783.805918, 865.424017)"><path style="stroke:none" d="M 27.125 -9.234375 C 28.675781 -9.234375 30.1875 -9.46875 31.65625 -9.9375 C 33.125 -10.414062 34.203125 -10.867188 34.890625 -11.296875 L 35.921875 -12.015625 L 40.265625 -3.3125 C 40.117188 -3.207031 39.921875 -3.0625 39.671875 -2.875 C 39.421875 -2.695312 38.832031 -2.363281 37.90625 -1.875 C 36.976562 -1.382812 35.988281 -0.957031 34.9375 -0.59375 C 33.882812 -0.226562 32.507812 0.09375 30.8125 0.375 C 29.113281 0.664062 27.359375 0.8125 25.546875 0.8125 C 21.378906 0.8125 17.425781 -0.207031 13.6875 -2.25 C 9.957031 -4.300781 6.953125 -7.117188 4.671875 -10.703125 C 2.390625 -14.285156 1.25 -18.160156 1.25 -22.328125 C 1.25 -25.484375 1.914062 -28.507812 3.25 -31.40625 C 4.59375 -34.3125 6.378906 -36.796875 8.609375 -38.859375 C 10.835938 -40.921875 13.4375 -42.566406 16.40625 -43.796875 C 19.382812 -45.035156 22.429688 -45.65625 25.546875 -45.65625 C 28.441406 -45.65625 31.109375 -45.304688 33.546875 -44.609375 C 35.992188 -43.921875 37.726562 -43.234375 38.75 -42.546875 L 40.265625 -41.515625 L 35.921875 -32.828125 C 35.671875 -33.046875 35.289062 -33.304688 34.78125 -33.609375 C 34.269531 -33.921875 33.253906 -34.328125 31.734375 -34.828125 C 30.210938 -35.335938 28.675781 -35.59375 27.125 -35.59375 C 24.65625 -35.59375 22.441406 -35.191406 20.484375 -34.390625 C 18.523438 -33.597656 16.972656 -32.550781 15.828125 -31.25 C 14.691406 -29.945312 13.828125 -28.539062 13.234375 -27.03125 C 12.640625 -25.53125 12.34375 -24 12.34375 -22.4375 C 12.34375 -19.03125 13.617188 -15.976562 16.171875 -13.28125 C 18.722656 -10.582031 22.375 -9.234375 27.125 -9.234375 Z M 27.125 -9.234375 "/></g></g><g style="fill:#205ffc;fill-opacity:1;"><g transform="translate(824.724948, 865.424017)"><path style="stroke:none" d="M 26.03125 -44.828125 L 44.125 0 L 33.15625 0 L 29.828125 -8.96875 L 12.765625 -8.96875 L 9.453125 0 L -1.515625 0 L 16.578125 -44.828125 Z M 26.359375 -17.9375 L 21.359375 -30.96875 L 21.25 -30.96875 L 16.25 -17.9375 Z M 26.359375 -17.9375 "/></g></g><g style="fill:#205ffc;fill-opacity:1;"><g transform="translate(864.72019, 865.424017)"><path style="stroke:none" d="M 0.4375 -35.859375 L 0.4375 -44.828125 L 31.953125 -44.828125 L 31.953125 -35.859375 L 21.296875 -35.859375 L 21.296875 0 L 11.09375 0 L 11.09375 -35.859375 Z M 0.4375 -35.859375 "/></g></g><g style="fill:#205ffc;fill-opacity:1;"><g transform="translate(897.107638, 865.424017)"><path style="stroke:none" d="M 13.484375 -44.828125 L 13.484375 0 L 3.265625 0 L 3.265625 -44.828125 Z M 13.484375 -44.828125 "/></g></g><g style="fill:#205ffc;fill-opacity:1;"><g transform="translate(913.844812, 865.424017)"><path style="stroke:none" d="M 1.25 -22.4375 C 1.25 -28.925781 3.457031 -34.414062 7.875 -38.90625 C 12.300781 -43.40625 17.628906 -45.65625 23.859375 -45.65625 C 30.128906 -45.65625 35.453125 -43.414062 39.828125 -38.9375 C 44.210938 -34.457031 46.40625 -28.957031 46.40625 -22.4375 C 46.40625 -15.882812 44.25 -10.367188 39.9375 -5.890625 C 35.625 -1.421875 30.265625 0.8125 23.859375 0.8125 C 17.296875 0.8125 11.882812 -1.40625 7.625 -5.84375 C 3.375 -10.28125 1.25 -15.8125 1.25 -22.4375 Z M 12.28125 -22.4375 C 12.28125 -20.082031 12.640625 -17.9375 13.359375 -16 C 14.085938 -14.0625 15.359375 -12.421875 17.171875 -11.078125 C 18.984375 -9.742188 21.210938 -9.078125 23.859375 -9.078125 C 27.660156 -9.078125 30.53125 -10.378906 32.46875 -12.984375 C 34.40625 -15.597656 35.375 -18.75 35.375 -22.4375 C 35.375 -26.101562 34.382812 -29.25 32.40625 -31.875 C 30.4375 -34.5 27.585938 -35.8125 23.859375 -35.8125 C 20.160156 -35.8125 17.304688 -34.5 15.296875 -31.875 C 13.285156 -29.25 12.28125 -26.101562 12.28125 -22.4375 Z M 12.28125 -22.4375 "/></g></g><g style="fill:#205ffc;fill-opacity:1;"><g transform="translate(961.502173, 865.424017)"><path style="stroke:none" d="M 13.484375 -27.828125 L 13.484375 0 L 3.265625 0 L 3.265625 -44.828125 L 13.484375 -44.828125 L 31.296875 -17.015625 L 31.40625 -17.015625 L 31.40625 -44.828125 L 41.625 -44.828125 L 41.625 0 L 31.40625 0 L 13.578125 -27.828125 Z M 13.484375 -27.828125 "/></g></g></g></svg>